# Blender v2.69 (sub 0) OBJ File: 'arrow.blend'
# www.blender.org
o Cube
v -3.000000 0.000000 0.000000
v 0.000000 0.000000 -3.000000
v 3.000000 0.000000 0.000000
v 0.000000 0.000000 0.000000
v 0.000000 0.000000 0.000000
v 0.000000 0.500000 0.000000
v -3.000000 0.000000 3.000000
v -3.000000 0.500000 0.000000
v -3.000000 0.000000 0.000000
v -3.000000 0.000000 0.000000
v 0.000000 0.500000 -3.000000
v 3.000000 0.000000 0.000000
v 0.000000 0.000000 -3.000000
v 3.000000 0.500000 0.000000
v 3.000000 0.000000 3.000000
v 3.000000 0.000000 0.000000
v 0.000000 0.500000 0.000000
v 0.000000 0.000000 0.000000
v -3.000000 0.000000 3.000000
v -3.000000 0.000000 0.000000
v 3.000000 0.000000 0.000000
v 3.000000 0.000000 3.000000
v -3.000000 0.500000 3.000000
v -3.000000 0.500000 0.000000
v 3.000000 0.500000 0.000000
v 3.000000 0.500000 3.000000
vt 0.471639 0.503886
vt 0.469730 0.503886
vt 0.469730 0.501977
vt 0.469730 0.502010
vt 0.469763 0.502010
vt 0.469068 0.994417
vt 0.470203 0.502072
vt 0.469512 0.992534
vt 0.470203 0.502763
vt 0.471639 0.501977
vt 0.469773 0.174202
vt 0.468926 0.035019
vt 0.470787 0.977034
vt 0.468878 0.978943
vt 0.470817 0.958465
vt 0.468908 0.960374
vt 0.470835 0.033110
vt 0.471212 0.172267
vt 0.469303 0.174177
vt 0.470944 0.992508
vt 0.469035 0.994417
vt 0.471642 0.503923
vt 0.470056 0.022278
vt 0.468950 0.602559
vt 0.469726 0.502705
vn 0.000000 -1.000000 0.000000
vn 0.000000 0.000000 1.000000
vn 0.000000 1.000000 0.000000
vn -1.000000 0.000000 0.000000
vn -0.707107 0.000000 -0.707107
vn 0.707107 0.000000 -0.707107
vn 1.000000 0.000000 0.000000
vn -0.707107 0.000000 0.707107
vn 0.707107 0.000000 0.707107
usemtl Material.001
s off
f 5/1/1 13/2/1 21/3/1
f 6/4/2 17/5/2 14/6/2
f 6/7/2 14/8/2 25/9/2
f 16/10/2 5/1/2 21/3/2
f 17/5/3 26/1/3 14/6/3
f 11/11/3 6/7/3 25/9/3
usemtl Material.001_wtf
f 1/1/4 7/12/4 8/13/4
f 1/1/2 8/14/2 9/15/2
f 1/1/2 9/16/2 10/10/2
f 1/1/2 10/2/2 7/17/2
f 2/1/5 9/16/5 11/18/5
f 2/1/6 11/19/6 12/10/6
f 2/1/2 12/2/2 13/10/2
f 2/1/2 13/2/2 9/15/2
f 3/1/2 12/2/2 14/20/2
f 3/1/7 14/21/7 15/10/7
f 3/1/2 15/2/2 16/10/2
f 3/1/2 16/2/2 12/10/2
f 4/1/8 15/2/8 17/10/8
f 4/1/9 17/2/9 7/17/9
f 4/1/2 7/12/2 18/10/2
f 4/1/2 18/2/2 15/10/2
f 5/1/2 18/2/2 10/10/2
f 5/1/2 10/2/2 20/3/2
f 5/1/2 16/2/2 18/10/2
f 6/22/3 11/19/3 24/23/3
f 6/22/2 8/14/2 17/10/2
f 7/12/4 23/24/4 8/13/4
f 8/14/2 24/23/2 9/15/2
f 9/16/2 20/3/2 10/10/2
f 10/2/2 19/3/2 7/17/2
f 9/16/5 24/23/5 11/18/5
f 11/19/6 25/25/6 12/10/6
f 12/2/2 21/3/2 13/10/2
f 13/2/2 20/3/2 9/15/2
f 12/2/2 25/25/2 14/20/2
f 14/21/7 26/3/7 15/10/7
f 15/2/2 22/3/2 16/10/2
f 16/2/2 21/3/2 12/10/2
f 15/2/8 26/3/8 17/10/8
f 17/2/9 23/24/9 7/17/9
f 7/12/2 19/3/2 18/10/2
f 18/2/2 22/3/2 15/10/2
f 18/2/1 19/3/1 10/10/1
f 13/10/1 5/1/1 20/3/1
f 16/2/1 22/3/1 18/10/1
f 8/13/2 6/22/2 24/23/2
f 8/14/3 23/24/3 17/10/3
