<!-- Generator: Adobe Illustrator 19.0.0, SVG Export Plug-In  -->
<svg version="1.2" baseProfile="tiny"
	 xmlns="http://www.w3.org/2000/svg" xmlns:xlink="http://www.w3.org/1999/xlink" xmlns:a="http://ns.adobe.com/AdobeSVGViewerExtensions/3.0/"
	 x="0px" y="0px" width="556.24px" height="716.22px" viewBox="0 0 556.24 716.22" xml:space="preserve">
<defs>
</defs>
<g>
	<path fill-rule="evenodd" fill="#FFFFFF" d="M511.3,212.61H158.15l134.62-134.4c17.92-17.92,17.92-46.88,0-64.8
		c-17.92-17.92-46.98-17.87-64.91,0.05L13.44,227.92c-17.92,17.92-17.92,47,0,64.92l213.08,213.09
		c8.96,8.96,20.71,13.45,32.45,13.45c11.75,0,23.49-4.48,32.45-13.44c17.92-17.92,17.92-47.26,0-65.18L155.25,304.3h309.3v366.02
		c0,25.35,20.49,45.9,45.84,45.9c25.35,0,45.84-20.55,45.84-45.9V258.95C556.24,233.6,536.65,212.61,511.3,212.61L511.3,212.61z"/>
</g>
</svg>